<?xml version="1.0" encoding="UTF-8" standalone="no"?>
<!DOCTYPE svg PUBLIC "-//W3C//DTD SVG 1.1//EN" "http://www.w3.org/Graphics/SVG/1.1/DTD/svg11.dtd">
<svg width="100%" height="100%" viewBox="0 0 355 491" version="1.1" xmlns="http://www.w3.org/2000/svg" xmlns:xlink="http://www.w3.org/1999/xlink" xml:space="preserve" xmlns:serif="http://www.serif.com/" style="fill-rule:evenodd;clip-rule:evenodd;stroke-linejoin:round;stroke-miterlimit:2;">
    <g transform="matrix(1,0,0,1,-300.920295,-2555.76675)">
        <g transform="matrix(1,0,0,1,25.542133,0)">
            <g id="dumbass-owl" serif:id="dumbass owl">
                <g transform="matrix(0.290709,-0.258928,0.347829,0.390522,-816.685154,1907.83265)">
                    <path d="M683.033,2928.064L683.033,3084.072L444.74,3084.072C338.933,3084.072 253.161,3020.222 253.161,2941.458C253.161,2941.457 253.161,2941.455 253.161,2941.454C253.161,2934.059 261.213,2928.065 271.147,2928.064C352.609,2928.064 683.033,2928.064 683.033,2928.064Z" style="fill:rgb(214,214,173);"/>
                </g>
                <g transform="matrix(1,0,0,1,13.061856,-4.353933)">
                    <path d="M485.751,2561.091C495.184,2561.091 527.602,2558.488 536.459,2561.809C594.158,2583.45 617.008,2663.079 617.008,2768.629C617.008,2890.382 556.609,2926.254 491.556,2958.751C367.052,3020.949 314.567,2966.892 384.884,2823.221C442.508,2705.484 414.862,2561.091 485.751,2561.091Z" style="fill:rgb(255,254,176);"/>
                    <clipPath id="_clip1">
                        <path d="M485.751,2561.091C495.184,2561.091 527.602,2558.488 536.459,2561.809C594.158,2583.45 617.008,2663.079 617.008,2768.629C617.008,2890.382 556.609,2926.254 491.556,2958.751C367.052,3020.949 314.567,2966.892 384.884,2823.221C442.508,2705.484 414.862,2561.091 485.751,2561.091Z"/>
                    </clipPath>
                    <g clip-path="url(#_clip1)">
                        <g transform="matrix(1,0,0,1,-13.061856,4.353933)">
                            <g transform="matrix(-0.009728,-0.712641,0.473209,-0.00646,-822.502597,3298.428672)">
                                <path d="M777.712,2909.098C767.619,2919.393 759.425,2935.618 759.425,2953.218C759.425,2970.818 767.619,2987.044 777.712,2997.338C744.07,2997.338 742.247,2977.451 742.247,2953.1C742.247,2928.75 744.07,2909.098 777.712,2909.098Z" style="fill:rgb(214,214,173);"/>
                            </g>
                            <g transform="matrix(-0.009728,-0.712641,0.473209,-0.00646,-773.77208,3299.58975)">
                                <path d="M777.712,2909.098C767.619,2919.393 759.425,2935.618 759.425,2953.218C759.425,2970.818 767.619,2987.044 777.712,2997.338C744.07,2997.338 742.247,2977.451 742.247,2953.1C742.247,2928.75 744.07,2909.098 777.712,2909.098Z" style="fill:rgb(214,214,173);"/>
                            </g>
                            <g transform="matrix(-0.009728,-0.712641,0.473209,-0.00646,-788.865744,3334.439047)">
                                <path d="M777.712,2909.098C767.619,2919.393 759.425,2935.618 759.425,2953.218C759.425,2970.818 767.619,2987.044 777.712,2997.338C744.07,2997.338 742.247,2977.451 742.247,2953.1C742.247,2928.75 744.07,2909.098 777.712,2909.098Z" style="fill:rgb(214,214,173);"/>
                            </g>
                            <g transform="matrix(-0.009728,-0.712641,0.473209,-0.00646,-776.692496,3360.805582)">
                                <path d="M777.712,2909.098C767.619,2919.393 759.425,2935.618 759.425,2953.218C759.425,2970.818 767.619,2987.044 777.712,2997.338C744.07,2997.338 742.247,2977.451 742.247,2953.1C742.247,2928.75 744.07,2909.098 777.712,2909.098Z" style="fill:rgb(214,214,173);"/>
                            </g>
                        </g>
                    </g>
                </g>
                <g transform="matrix(0.48035,0,0,0.522645,87.806531,1166.729719)">
                    <path d="M923.322,2780.93C923.322,2780.93 1075.71,2674.635 1075.71,2814.346C1075.71,2878.025 1004.176,2929.725 916.066,2929.725C827.955,2929.725 756.421,2878.025 756.421,2814.346C756.421,2669.3 923.322,2780.93 923.322,2780.93Z" style="fill:rgb(125,124,109);"/>
                </g>
                <g transform="matrix(-0.436815,-0,0,-0.436815,940.58657,3938.771847)">
                    <path d="M935.722,2855.476C937.461,2851.998 941.015,2849.802 944.903,2849.802C948.792,2849.802 952.346,2851.998 954.085,2855.476C958.267,2863.841 963.381,2874.069 968.331,2883.968C972.39,2892.086 971.956,2901.728 967.184,2909.449C962.412,2917.17 953.983,2921.87 944.906,2921.87C944.904,2921.87 944.902,2921.87 944.901,2921.87C935.824,2921.87 927.394,2917.17 922.622,2909.449C917.851,2901.728 917.417,2892.086 921.476,2883.968C926.425,2874.069 931.539,2863.841 935.722,2855.476Z" style="fill:rgb(255,252,0);"/>
                </g>
                <g transform="matrix(-2.114844,-2.211712,2.733044,-2.613343,-5446.045259,12430.603413)">
                    <path d="M941.518,2839.557C942.385,2838.906 943.552,2838.583 944.73,2838.666C945.908,2838.75 946.988,2839.233 947.701,2839.996C967.245,2860.802 966.151,2873.954 966.632,2891.591C966.959,2900.805 959.336,2908.968 948.293,2911.229C948.295,2911.236 948.294,2911.237 948.294,2911.237C940.805,2912.77 932.861,2911.476 926.688,2907.717C920.516,2903.957 916.779,2898.138 916.527,2891.89C915.613,2873.055 919.155,2856.362 941.518,2839.557Z" style="fill:rgb(109,77,52);"/>
                </g>
                <g transform="matrix(0.523553,-0.483574,0.321103,0.34765,-892.902171,2091.829266)">
                    <path d="M777.712,2909.098C767.619,2919.393 759.425,2935.618 759.425,2953.218C759.425,2970.818 767.619,2987.044 777.712,2997.338C744.07,2997.338 742.247,2977.451 742.247,2953.1C742.247,2928.75 744.07,2909.098 777.712,2909.098Z" style="fill:rgb(67,35,11);"/>
                </g>
                <g transform="matrix(0.523553,-0.483574,0.321103,0.34765,-862.443277,2132.733791)">
                    <path d="M777.712,2909.098C767.619,2919.393 759.425,2935.618 759.425,2953.218C759.425,2970.818 767.619,2987.044 777.712,2997.338C744.07,2997.338 742.247,2977.451 742.247,2953.1C742.247,2928.75 744.07,2909.098 777.712,2909.098Z" style="fill:rgb(67,35,11);"/>
                </g>
                <g transform="matrix(0.523553,-0.483574,0.321103,0.34765,-892.902171,2091.829266)">
                    <path d="M777.712,2909.098C767.619,2919.393 759.425,2935.618 759.425,2953.218C759.425,2970.818 767.619,2987.044 777.712,2997.338C744.07,2997.338 742.247,2977.451 742.247,2953.1C742.247,2928.75 744.07,2909.098 777.712,2909.098Z" style="fill:rgb(67,35,11);"/>
                </g>
                <g transform="matrix(0.523553,-0.483574,0.321103,0.34765,-927.733724,2105.761852)">
                    <path d="M777.712,2909.098C767.619,2919.393 759.425,2935.618 759.425,2953.218C759.425,2970.818 767.619,2987.044 777.712,2997.338C744.07,2997.338 742.247,2977.451 742.247,2953.1C742.247,2928.75 744.07,2909.098 777.712,2909.098Z" style="fill:rgb(67,35,11);"/>
                </g>
                <g transform="matrix(0.523553,-0.483574,0.321103,0.34765,-892.902171,2091.829266)">
                    <path d="M777.712,2909.098C767.619,2919.393 759.425,2935.618 759.425,2953.218C759.425,2970.818 767.619,2987.044 777.712,2997.338C744.07,2997.338 742.247,2977.451 742.247,2953.1C742.247,2928.75 744.07,2909.098 777.712,2909.098Z" style="fill:rgb(67,35,11);"/>
                </g>
                <g transform="matrix(0.523553,-0.483574,0.321103,0.34765,-901.029542,2138.271337)">
                    <path d="M777.712,2909.098C767.619,2919.393 759.425,2935.618 759.425,2953.218C759.425,2970.818 767.619,2987.044 777.712,2997.338C744.07,2997.338 742.247,2977.451 742.247,2953.1C742.247,2928.75 744.07,2909.098 777.712,2909.098Z" style="fill:rgb(67,35,11);"/>
                </g>
                <g transform="matrix(0.523553,-0.483574,0.321103,0.34765,-892.902171,2091.829266)">
                    <path d="M777.712,2909.098C767.619,2919.393 759.425,2935.618 759.425,2953.218C759.425,2970.818 767.619,2987.044 777.712,2997.338C744.07,2997.338 742.247,2977.451 742.247,2953.1C742.247,2928.75 744.07,2909.098 777.712,2909.098Z" style="fill:rgb(67,35,11);"/>
                </g>
                <g transform="matrix(0.523553,-0.483574,0.321103,0.34765,-868.520101,2169.619744)">
                    <path d="M777.712,2909.098C767.619,2919.393 759.425,2935.618 759.425,2953.218C759.425,2970.818 767.619,2987.044 777.712,2997.338C744.07,2997.338 742.247,2977.451 742.247,2953.1C742.247,2928.75 744.07,2909.098 777.712,2909.098Z" style="fill:rgb(67,35,11);"/>
                </g>
                <g transform="matrix(0.523553,-0.483574,0.321103,0.34765,-892.902171,2091.829266)">
                    <path d="M777.712,2909.098C767.619,2919.393 759.425,2935.618 759.425,2953.218C759.425,2970.818 767.619,2987.044 777.712,2997.338C744.07,2997.338 742.247,2977.451 742.247,2953.1C742.247,2928.75 744.07,2909.098 777.712,2909.098Z" style="fill:rgb(67,35,11);"/>
                </g>
                <g transform="matrix(0.523553,-0.483574,0.321103,0.34765,-941.666332,2138.271337)">
                    <path d="M777.712,2909.098C767.619,2919.393 759.425,2935.618 759.425,2953.218C759.425,2970.818 767.619,2987.044 777.712,2997.338C744.07,2997.338 742.247,2977.451 742.247,2953.1C742.247,2928.75 744.07,2909.098 777.712,2909.098Z" style="fill:rgb(67,35,11);"/>
                </g>
                <g transform="matrix(0.523553,-0.483574,0.321103,0.34765,-912.949054,2179.175863)">
                    <path d="M777.712,2909.098C767.619,2919.393 759.425,2935.618 759.425,2953.218C759.425,2970.818 767.619,2987.044 777.712,2997.338C744.07,2997.338 742.247,2977.451 742.247,2953.1C742.247,2928.75 744.07,2909.098 777.712,2909.098Z" style="fill:rgb(67,35,11);"/>
                </g>
                <g transform="matrix(0.523553,-0.483574,0.321103,0.34765,-953.042821,2179.175863)">
                    <path d="M777.712,2909.098C767.619,2919.393 759.425,2935.618 759.425,2953.218C759.425,2970.818 767.619,2987.044 777.712,2997.338C744.07,2997.338 742.247,2977.451 742.247,2953.1C742.247,2928.75 744.07,2909.098 777.712,2909.098Z" style="fill:rgb(67,35,11);"/>
                </g>
                <g transform="matrix(1,0,0,1,76.919732,-4.353933)">
                    <circle cx="482.485" cy="2644.179" r="20.681" style="fill:rgb(203,203,200);"/>
                </g>
                <g transform="matrix(1,0,0,1,13.061856,-4.353933)">
                    <circle cx="482.485" cy="2644.179" r="20.681" style="fill:rgb(203,203,200);"/>
                </g>
                <g transform="matrix(0.562759,0,0,0.554099,224.024377,1174.689312)">
                    <circle cx="482.485" cy="2644.179" r="20.681" style="fill:rgb(7,7,0);"/>
                </g>
                <g transform="matrix(0.562759,0,0,0.554099,287.882253,1174.689312)">
                    <circle cx="482.485" cy="2644.179" r="20.681" style="fill:rgb(7,7,0);"/>
                </g>
                <g transform="matrix(0.313075,0,0,0.317718,342.070217,1796.355364)">
                    <circle cx="482.485" cy="2644.179" r="20.681" style="fill:white;"/>
                </g>
                <g transform="matrix(0.313075,0,0,0.317718,405.164391,1796.355364)">
                    <circle cx="482.485" cy="2644.179" r="20.681" style="fill:white;"/>
                </g>
                <g transform="matrix(1,0,0,1,-42.85077,-17.142809)">
                    <path d="M568.525,2959.73C568.525,2959.73 545.507,2983.243 542.384,3000.518C539.03,3019.071 540.061,3033.107 540.061,3033.107L508.036,3033.107C508.036,3033.107 509.803,3016.747 508.036,2998.194C506.39,2980.919 483.519,2962.041 483.519,2962.041L568.525,2959.73Z" style="fill:rgb(255,254,176);"/>
                </g>
                <g transform="matrix(0.387911,0,0,0.387911,255.540251,1828.651387)">
                    <path d="M706.726,3102.824C706.726,3102.824 610.246,3103.055 588.712,3097.628C547.007,3087.117 541.32,3079.928 498.713,3098.032C480.458,3105.789 441.832,3102.824 441.832,3102.824C441.832,3064.325 501.131,3033.115 574.279,3033.115C647.428,3033.115 706.726,3064.325 706.726,3102.824Z" style="fill:rgb(255,164,0);"/>
                </g>
            </g>
        </g>
    </g>
</svg>
